<svg width="38" height="40" viewBox="0 0 38 40" fill="none" xmlns="http://www.w3.org/2000/svg">
<path d="M18.3305 9.71814C17.9163 9.71814 17.5805 10.0539 17.5805 10.4681C17.5805 10.8824 17.9163 11.2181 18.3305 11.2181V9.71814ZM30.1482 11.2181C30.5625 11.2181 30.8982 10.8824 30.8982 10.4681C30.8982 10.0539 30.5625 9.71814 30.1482 9.71814V11.2181ZM18.3305 19.1863C17.9163 19.1863 17.5805 19.5221 17.5805 19.9363C17.5805 20.3505 17.9163 20.6863 18.3305 20.6863V19.1863ZM30.1482 20.6863C30.5625 20.6863 30.8982 20.3505 30.8982 19.9363C30.8982 19.5221 30.5625 19.1863 30.1482 19.1863V20.6863ZM18.3305 28.6549C17.9163 28.6549 17.5805 28.9907 17.5805 29.4049C17.5805 29.8191 17.9163 30.1549 18.3305 30.1549V28.6549ZM30.1482 30.1549C30.5625 30.1549 30.8982 29.8191 30.8982 29.4049C30.8982 28.9907 30.5625 28.6549 30.1482 28.6549V30.1549ZM6.00009 1.75H31.6303V0.25H6.00009V1.75ZM31.6303 1.75C33.9775 1.75 35.8804 3.65283 35.8804 6.00009H37.3804C37.3804 2.8244 34.806 0.25 31.6303 0.25V1.75ZM35.8804 6.00009V33.8725H37.3804V6.00009H35.8804ZM35.8804 33.8725C35.8804 36.2197 33.9775 38.1226 31.6303 38.1226V39.6226C34.806 39.6226 37.3804 37.0482 37.3804 33.8725H35.8804ZM31.6303 38.1226H6.00009V39.6226H31.6303V38.1226ZM6.00009 38.1226C3.65283 38.1226 1.75 36.2197 1.75 33.8725H0.25C0.25 37.0482 2.8244 39.6226 6.00009 39.6226V38.1226ZM1.75 33.8725V6.00009H0.25V33.8725H1.75ZM1.75 6.00009C1.75 3.65283 3.65283 1.75 6.00009 1.75V0.25C2.8244 0.25 0.25 2.8244 0.25 6.00009H1.75ZM9.11402 17.9525C10.2094 17.9525 11.0978 18.8409 11.0978 19.9363H12.5978C12.5978 18.0124 11.0379 16.4525 9.11402 16.4525V17.9525ZM11.0978 19.9363C11.0978 21.0317 10.2094 21.9201 9.11402 21.9201V23.4201C11.0379 23.4201 12.5978 21.8601 12.5978 19.9363H11.0978ZM9.11402 21.9201C8.01859 21.9201 7.13018 21.0317 7.13018 19.9363H5.63018C5.63018 21.8601 7.19016 23.4201 9.11402 23.4201V21.9201ZM7.13018 19.9363C7.13018 18.8409 8.01859 17.9525 9.11402 17.9525V16.4525C7.19016 16.4525 5.63018 18.0124 5.63018 19.9363H7.13018ZM9.11402 8.48431C10.2094 8.48431 11.0978 9.37271 11.0978 10.4681H12.5978C12.5978 8.54428 11.0379 6.98431 9.11402 6.98431V8.48431ZM11.0978 10.4681C11.0978 11.5636 10.2094 12.452 9.11402 12.452V13.952C11.0379 13.952 12.5978 12.392 12.5978 10.4681H11.0978ZM9.11402 12.452C8.01859 12.452 7.13018 11.5636 7.13018 10.4681H5.63018C5.63018 12.392 7.19016 13.952 9.11402 13.952V12.452ZM7.13018 10.4681C7.13018 9.37271 8.01859 8.48431 9.11402 8.48431V6.98431C7.19016 6.98431 5.63018 8.54428 5.63018 10.4681H7.13018ZM9.11402 27.4206C10.2094 27.4206 11.0978 28.309 11.0978 29.4044H12.5978C12.5978 27.4806 11.0379 25.9206 9.11402 25.9206V27.4206ZM11.0978 29.4044C11.0978 30.4999 10.2094 31.3883 9.11402 31.3883V32.8883C11.0379 32.8883 12.5978 31.3283 12.5978 29.4044H11.0978ZM9.11402 31.3883C8.01859 31.3883 7.13018 30.4999 7.13018 29.4044H5.63018C5.63018 31.3283 7.19016 32.8883 9.11402 32.8883V31.3883ZM7.13018 29.4044C7.13018 28.309 8.01859 27.4206 9.11402 27.4206V25.9206C7.19016 25.9206 5.63018 27.4806 5.63018 29.4044H7.13018ZM18.3305 11.2181H30.1482V9.71814H18.3305V11.2181ZM18.3305 20.6863H30.1482V19.1863H18.3305V20.6863ZM18.3305 30.1549H30.1482V28.6549H18.3305V30.1549Z" fill="white"/>
</svg>
