<svg width="40" height="40" viewBox="0 0 40 40" fill="none" xmlns="http://www.w3.org/2000/svg">
<path d="M23.3729 5.42361H22.623C22.623 5.7657 22.8545 6.06444 23.1857 6.14981L23.3729 5.42361ZM27.165 6.99639L26.7836 7.64211C27.0782 7.81612 27.4533 7.76863 27.6952 7.52667L27.165 6.99639ZM29.0569 5.10444L28.5266 4.57416L29.0569 5.10444ZM31.8855 5.10444L32.4158 4.57416L32.4156 4.5739L31.8855 5.10444ZM34.27 7.4889L34.8003 6.95862L34.8003 6.95862L34.27 7.4889ZM34.27 10.3175L34.8003 10.8478L34.8005 10.8475L34.27 10.3175ZM32.378 12.2095L31.8478 11.6792C31.6057 11.9212 31.5583 12.2964 31.7324 12.591L32.378 12.2095ZM33.9508 16.0015L33.2246 16.1886C33.3099 16.5199 33.6087 16.7515 33.9508 16.7515V16.0015ZM33.9508 23.3737V22.6237C33.6087 22.6237 33.3099 22.8553 33.2246 23.1866L33.9508 23.3737ZM32.378 27.1657L31.7323 26.7844C31.5583 27.079 31.6058 27.4541 31.8478 27.696L32.378 27.1657ZM34.2692 29.0569L33.739 29.5872L34.2692 29.0569ZM34.2692 31.8855L34.7995 32.4158L34.7998 32.4156L34.2692 31.8855ZM31.8848 34.27L32.4151 34.8003V34.8003L31.8848 34.27ZM29.0562 34.27L28.5259 34.8003L28.5261 34.8005L29.0562 34.27ZM27.1642 32.3781L27.6945 31.8478C27.4525 31.6058 27.0773 31.5583 26.7827 31.7324L27.1642 32.3781ZM23.3721 33.9508L23.1847 33.2247C22.8536 33.3102 22.6222 33.6089 22.6222 33.9508H23.3721ZM16 33.9508H16.75C16.75 33.6087 16.5184 33.31 16.1871 33.2246L16 33.9508ZM12.208 32.3781L12.5893 31.7323C12.2947 31.5583 11.9196 31.6058 11.6777 31.8478L12.208 32.3781ZM10.316 34.27L10.8463 34.8003V34.8003L10.316 34.27ZM7.48739 34.27L6.9571 34.8003L6.95736 34.8005L7.48739 34.27ZM5.10293 31.8855L5.63321 31.3553H5.63321L5.10293 31.8855ZM5.10293 29.0569L4.57264 28.5266L4.57239 28.5269L5.10293 29.0569ZM6.99487 27.165L7.52515 27.6953C7.76717 27.4533 7.81462 27.0781 7.64049 26.7834L6.99487 27.165ZM5.42209 23.3729L6.14832 23.1858C6.06298 22.8545 5.76422 22.623 5.42209 22.623V23.3729ZM5.42209 16.0008V16.7507C5.76422 16.7507 6.06298 16.5192 6.14832 16.1879L5.42209 16.0008ZM6.99487 12.2087L7.64049 12.5903C7.81462 12.2956 7.76717 11.9205 7.52515 11.6784L6.99487 12.2087ZM5.10367 10.3175L5.63395 9.78724L5.10367 10.3175ZM5.10367 7.4889L4.57339 6.95862L4.57313 6.95887L5.10367 7.4889ZM10.3168 5.10444L10.847 4.57416L10.8468 4.5739L10.3168 5.10444ZM12.2087 6.99639L11.6784 7.52667C11.9204 7.76868 12.2956 7.81614 12.5902 7.64201L12.2087 6.99639ZM16.0008 5.42435L16.1878 6.15058C16.5191 6.06524 16.7507 5.76648 16.7507 5.42435H16.0008ZM23.1857 6.14981C24.4644 6.47935 25.6728 6.98609 26.7836 7.64211L27.5463 6.35066C26.3165 5.62436 24.9776 5.06275 23.56 4.69741L23.1857 6.14981ZM27.6952 7.52667L29.5872 5.63472L28.5266 4.57416L26.6347 6.4661L27.6952 7.52667ZM29.5872 5.63472C30.0716 5.15027 30.87 5.14991 31.3555 5.63498L32.4156 4.5739C31.3447 3.50405 29.5971 3.50369 28.5266 4.57416L29.5872 5.63472ZM31.3552 5.63472L33.7397 8.01919L34.8003 6.95862L32.4158 4.57416L31.3552 5.63472ZM33.7397 8.01919C34.2242 8.50364 34.2245 9.30195 33.7394 9.78749L34.8005 10.8475C35.8704 9.77667 35.8707 8.02909 34.8003 6.95862L33.7397 8.01919ZM33.7397 9.78724L31.8478 11.6792L32.9083 12.7397L34.8003 10.8478L33.7397 9.78724ZM31.7324 12.591C32.3883 13.7009 32.895 14.9093 33.2246 16.1886L34.677 15.8145C34.3117 14.3961 33.7501 13.0571 33.0237 11.8279L31.7324 12.591ZM33.9508 16.7515H36.6239V15.2516H33.9508V16.7515ZM36.6239 16.7515C37.3099 16.7515 37.8738 17.3158 37.8738 18.0014H39.3737C39.3737 16.4878 38.1386 15.2516 36.6239 15.2516V16.7515ZM37.8738 18.0014V21.3738H39.3737V18.0014H37.8738ZM37.8738 21.3738C37.8738 22.0593 37.3094 22.6237 36.6239 22.6237V24.1236C38.1377 24.1236 39.3737 22.8876 39.3737 21.3738H37.8738ZM36.6239 22.6237H33.9508V24.1236H36.6239V22.6237ZM33.2246 23.1866C32.8951 24.4658 32.3884 25.6735 31.7323 26.7844L33.0238 27.5471C33.75 26.3174 34.3117 24.9792 34.677 23.5607L33.2246 23.1866ZM31.8478 27.696L33.739 29.5872L34.7995 28.5266L32.9083 26.6354L31.8478 27.696ZM33.739 29.5872C34.2234 30.0717 34.2238 30.87 33.7387 31.3555L34.7998 32.4156C35.8696 31.3447 35.87 29.5971 34.7995 28.5266L33.739 29.5872ZM33.739 31.3553L31.3545 33.7397L32.4151 34.8003L34.7995 32.4158L33.739 31.3553ZM31.3545 33.7397C30.87 34.2242 30.0717 34.2245 29.5862 33.7395L28.5261 34.8005C29.597 35.8704 31.3446 35.8708 32.4151 34.8003L31.3545 33.7397ZM29.5864 33.7397L27.6945 31.8478L26.6339 32.9083L28.5259 34.8003L29.5864 33.7397ZM26.7827 31.7324C25.673 32.3882 24.4646 32.8943 23.1847 33.2247L23.5596 34.677C24.9774 34.311 26.3163 33.7502 27.5458 33.0237L26.7827 31.7324ZM22.6222 33.9508V36.624H24.1221V33.9508H22.6222ZM22.6222 36.624C22.6222 37.31 22.0579 37.8739 21.3723 37.8739V39.3737C22.8859 39.3737 24.1221 38.1387 24.1221 36.624H22.6222ZM21.3723 37.8739H17.9998V39.3737H21.3723V37.8739ZM17.9998 37.8739C17.3144 37.8739 16.75 37.3094 16.75 36.624H15.2501C15.2501 38.1377 16.4861 39.3737 17.9998 39.3737V37.8739ZM16.75 36.624V33.9508H15.2501V36.624H16.75ZM16.1871 33.2246C14.9079 32.8951 13.7002 32.3884 12.5893 31.7323L11.8266 33.0238C13.0563 33.75 14.3945 34.3117 15.813 34.6771L16.1871 33.2246ZM11.6777 31.8478L9.78572 33.7397L10.8463 34.8003L12.7382 32.9083L11.6777 31.8478ZM9.78572 33.7397C9.30127 34.2242 8.50295 34.2245 8.01742 33.7395L6.95736 34.8005C8.02823 35.8704 9.77582 35.8708 10.8463 34.8003L9.78572 33.7397ZM8.01767 33.7397L5.63321 31.3553L4.57264 32.4158L6.9571 34.8003L8.01767 33.7397ZM5.63321 31.3553C5.14876 30.8708 5.14839 30.0725 5.63346 29.587L4.57239 28.5269C3.50254 29.5978 3.50218 31.3454 4.57264 32.4158L5.63321 31.3553ZM5.63321 29.5872L7.52515 27.6953L6.46459 26.6347L4.57264 28.5266L5.63321 29.5872ZM7.64049 26.7834C6.98458 25.6735 6.47786 24.4652 6.14832 23.1858L4.69587 23.56C5.0612 24.9783 5.62285 26.3173 6.34925 27.5465L7.64049 26.7834ZM5.42209 22.623H2.74897V24.1228H5.42209V22.623ZM2.74897 22.623C2.06298 22.623 1.49908 22.0587 1.49908 21.3731H-0.000788033C-0.000788033 22.8867 1.23426 24.1228 2.74897 24.1228V22.623ZM1.49908 21.3731V18.0006H-0.000788033V21.3731H1.49908ZM1.49908 18.0006C1.49908 17.3152 2.06354 16.7507 2.74897 16.7507V15.2509C1.23519 15.2509 -0.000788033 16.4868 -0.000788033 18.0006H1.49908ZM2.74897 16.7507H5.42209V15.2509H2.74897V16.7507ZM6.14832 16.1879C6.47786 14.9085 6.98458 13.7002 7.64049 12.5903L6.34925 11.8272C5.62285 13.0564 5.0612 14.3954 4.69587 15.8137L6.14832 16.1879ZM7.52515 11.6784L5.63395 9.78724L4.57339 10.8478L6.46459 12.739L7.52515 11.6784ZM5.63395 9.78724C5.1495 9.30278 5.14914 8.50447 5.63421 8.01893L4.57313 6.95887C3.50328 8.02975 3.50292 9.77733 4.57339 10.8478L5.63395 9.78724ZM5.63395 8.01919L8.01841 5.63472L6.95785 4.57416L4.57339 6.95862L5.63395 8.01919ZM8.01841 5.63472C8.50287 5.15027 9.30119 5.14991 9.78672 5.63498L10.8468 4.5739C9.77591 3.50405 8.02832 3.50369 6.95785 4.57416L8.01841 5.63472ZM9.78647 5.63472L11.6784 7.52667L12.739 6.4661L10.847 4.57416L9.78647 5.63472ZM12.5902 7.64201C13.6999 6.98622 14.9082 6.48018 16.1878 6.15058L15.8137 4.69813C14.3956 5.0634 13.0566 5.62423 11.8272 6.35076L12.5902 7.64201ZM16.7507 5.42435V2.75123H15.2508V5.42435H16.7507ZM16.7507 2.75123C16.7507 2.06524 17.315 1.50134 18.0006 1.50134V0.00147027C16.487 0.00147027 15.2508 1.23652 15.2508 2.75123H16.7507ZM18.0006 1.50134H21.3731V0.00147027H18.0006V1.50134ZM21.3731 1.50134C22.0585 1.50134 22.623 2.0658 22.623 2.75123H24.1228C24.1228 1.23744 22.8868 0.00147027 21.3731 0.00147027V1.50134ZM22.623 2.75123V5.42361H24.1228V2.75123H22.623ZM27.3591 19.6865C27.3591 23.924 23.924 27.3592 19.6865 27.3592V28.859C24.7523 28.859 28.859 24.7523 28.859 19.6865H27.3591ZM19.6865 27.3592C15.4489 27.3592 12.0138 23.924 12.0138 19.6865H10.5139C10.5139 24.7523 14.6206 28.859 19.6865 28.859V27.3592ZM12.0138 19.6865C12.0138 15.449 15.4489 12.0138 19.6865 12.0138V10.5139C14.6206 10.5139 10.5139 14.6206 10.5139 19.6865H12.0138ZM19.6865 12.0138C23.924 12.0138 27.3591 15.449 27.3591 19.6865H28.859C28.859 14.6206 24.7523 10.5139 19.6865 10.5139V12.0138Z" fill="white"/>
</svg>
